<svg xmlns="http://www.w3.org/2000/svg" viewBox="0 0 100 65">
    <path d="M50 10 C38 10 28 20 28 32 C28 42 34 50 43 53 C44 53.2 45 53 45 52 L45 48 C38 50 36 45 36 45 C35 43 33 42 33 42 C31 40 33 40 33 40 C35 40 36 42 36 42 C38 45 41 44 43 44 C43.2 42 44 41 45 40 C39 39 33 37 33 28 C33 25 34 23 36 21 C35.8 20 35 18 36 15 C36 15 38 14 43 18 C45 17 47 17 49 17 C51 17 53 17 55 18 C60 14 62 15 62 15 C63 18 62.2 20 62 21 C64 23 65 25 65 28 C65 37 59 39 53 40 C54 41 55 43 55 46 L55 52 C55 53 56 53.2 57 53 C66 50 72 42 72 32 C72 20 62 10 50 10z" fill="black"/>
</svg>
